<?xml version="1.0" encoding="UTF-8"?>
<svg width="64" height="64" version="1.1" viewBox="-4.2 -6 1.9414 2.88" xml:space="preserve" xmlns="http://www.w3.org/2000/svg"><g transform="translate(-9.357 -7.9948)"><g transform="matrix(.15352 0 0 .15182 4.7966 1.692)"><g transform="matrix(1.0543 0 0 1.0593 -.37219 -1.5689)"><rect x="-.31996" y="4.7118" width="13.68" height="16.56" fill="#f9f9f9" stroke-width=".09" style="font-variation-settings:'wght' 800"/><path d="m-0.31996 12.992v-8.28h9.27v0.72h-6.615c-1.695 0-1.7581 0.0031-1.845 0.09-0.08927 0.08927-0.09 0.15-0.09 7.4495v7.3595l0.22091 0.22091h11.798l0.22091-0.22091v-7.3595c0-7.2995-7.34e-4 -7.3603-0.09-7.4495-0.08692-0.08692-0.15-0.09-1.845-0.09h-1.755v-0.72h4.41v16.56h-13.68z" fill="#c8beb7"/><path d="m2.8851 8.2169c-1.1246 0-1.275 0.00842-1.3298 0.074443-0.04904 0.05909-0.061699 0.32871-0.061699 1.309v1.2346l0.10872 0.08807c0.10285 0.08328 0.17374 0.08727 1.3094 0.07471 0.93628-0.01035 1.2171-0.02681 1.275-0.07497 0.06588-0.05474 0.074355-0.20586 0.074355-1.3298 0-0.92621-0.014613-1.2825-0.054053-1.322-0.03944-0.03945-0.39575-0.054053-1.322-0.054053zm-0.91907 0.495h1.8v1.8h-0.86994c-0.4785 0-0.8835-0.01347-0.9-0.02997s-0.030059-0.4215-0.030059-0.9zm4.5675 0.09c-1.2362 0-1.2825 0.0089-1.2825 0.2475 0 0.23856 0.046342 0.2475 1.2825 0.2475 0.97734 0 1.1513-0.010104 1.2118-0.070664 0.03889-0.03889 0.070664-0.1185 0.070664-0.17684 0-0.23856-0.046342-0.2475-1.2825-0.2475zm1.6258 1.125c-2.118 0-2.8134 0.013213-2.8542 0.054053-0.08951 0.089508-0.064213 0.29372 0.045967 0.3709 0.08785 0.06153 0.4315 0.07005 2.825 0.07005 2.3935 0 2.7372-0.0085 2.8251-0.07005 0.11664-0.0817 0.13076-0.25271 0.02927-0.3542-0.06277-0.06277-0.38533-0.070752-2.871-0.070752zm-3.1162 2.07c0.019875 0 0.038728 0.0014 0.056514 0.0041-0.017786-0.0027-0.036639-0.0041-0.056514-0.0041zm0 0c-0.00543 0-0.0165 0.0057-0.032519 0.01652 0.016019-0.01084 0.027092-0.01652 0.032519-0.01652zm0.056514 0.0041c0.017786 0.0027 0.034514 0.0067 0.050098 0.01204-0.015583-0.0053-0.032312-0.0093-0.050098-0.01204zm0.050098 0.01204c0.015583 0.0053 0.030062 0.01195 0.04333 0.01977-0.013268-0.0078-0.027747-0.01445-0.04333-0.01977zm0.04333 0.01977c0.013268 0.0078 0.025282 0.01686 0.036123 0.02707-0.010841-0.01021-0.022855-0.01925-0.036123-0.02707zm0.036123 0.02707c0.010841 0.01021 0.02044 0.0216 0.02874 0.0341-0.0083-0.0125-0.0179-0.02389-0.02874-0.0341zm0.02874 0.0341c0.0083 0.0125 0.01536 0.0261 0.021006 0.04078-0.00565-0.01468-0.012706-0.02828-0.021006-0.04078zm0.021006 0.04078c0.00565 0.01468 0.00995 0.03036 0.012832 0.04711-0.00288-0.01675-0.00719-0.03243-0.012832-0.04711zm0.012832 0.04711c0.00288 0.01675 0.00431 0.03455 0.00431 0.05326 0-0.01871-0.00143-0.03651-0.00431-0.05326zm0.00431 0.05326c0 0.01609-0.00158 0.03206-0.00598 0.04922 0.00439-0.01716 0.00598-0.03313 0.00598-0.04922zm-0.00598 0.04922c-0.00439 0.01716-0.011621 0.03547-0.022764 0.05643 0.011143-0.02095 0.01837-0.03927 0.022764-0.05643zm-0.022764 0.056466c-0.011143 0.02095-0.026248 0.04451-0.046494 0.07198 0.020246-0.02748 0.035351-0.05103 0.046494-0.07198zm-0.046494 0.07198c-0.020246 0.02747-0.04564 0.0589-0.077344 0.09563 0.031704-0.03673 0.057098-0.06815 0.077344-0.09563zm-0.077344 0.09563c-0.063408 0.07345-0.15208 0.16815-0.27545 0.29496 0.12337-0.12681 0.21204-0.22151 0.27545-0.29496zm-0.27545 0.29496c-0.12337 0.12681-0.28141 0.28572-0.48357 0.4877 0.20217-0.20199 0.36021-0.36089 0.48357-0.4877zm-0.48357 0.4877c-0.19666 0.19648-0.35313 0.35168-0.47909 0.47391 0.12596-0.12223 0.28244-0.27743 0.47909-0.47391zm-0.47909 0.4739c-0.12596 0.12223-0.22138 0.21151-0.29593 0.27624 0.074549-0.06473 0.16997-0.15401 0.29593-0.27624zm-0.29593 0.27624c-0.037274 0.03237-0.069344 0.05858-0.097383 0.07972 0.028038-0.02113 0.060109-0.04735 0.097383-0.07972zm-0.097383 0.07972c-0.028038 0.02113-0.052087 0.03714-0.073301 0.04913 0.021214-0.01199 0.045262-0.028 0.073301-0.04913zm-0.073301 0.04913c-0.021213 0.012-0.039626 0.01992-0.056426 0.02487 0.0168-0.0049 0.035212-0.01288 0.056426-0.02487zm-0.056426 0.02487c-0.0168 5e-3 -0.031961 0.0069-0.046758 0.0069 0.014797 0 0.029958-2e-3 0.046758-0.0069zm-0.046758 0.0069c-0.014366 0-0.028538-0.0013-0.043067-0.0042 0.014529 3e-3 0.0287 0.0042 0.043067 0.0042zm-0.043067-0.0042c-0.014529-3e-3 -0.02942-0.0076-0.045351-0.0145 0.015931 0.0069 0.030823 0.01154 0.045351 0.0145zm-0.045351-0.0145c-0.015932-0.0069-0.032842-0.01612-0.051416-0.02795 0.018574 0.01183 0.035484 0.02104 0.051416 0.02795zm1.701-2.1224c-0.05078 0.04113-0.11902 0.10063-0.19995 0.17402 0.080935-0.07339 0.14917-0.1329 0.19995-0.17402zm-0.19995 0.17402c-0.080935 0.07339-0.17457 0.16072-0.27589 0.25752 0.10132-0.0968 0.19495-0.18413 0.27589-0.25752zm-0.27589 0.25752c-0.10132 0.096798-0.21036 0.20304-0.32229 0.31438 0.11193-0.11134 0.22098-0.21759 0.32229-0.31438zm-1.9361-0.36044c-0.67808 0-0.88703 0.01395-0.95528 0.06381-0.08192 0.05985-0.088172 0.13607-0.10081 1.2256-0.01416 1.2206-0.00697 1.3162 0.10679 1.43 0.10529 0.10529 2.424 0.10576 2.5742 5.27e-4 0.08846-0.06196 0.099932-0.10957 0.099932-0.41265 0-0.2557-0.018873-0.36354-0.074443-0.42495-0.16215-0.17917-0.42047-0.02242-0.42047 0.25515v0.1575h-1.8v-1.7977l1.4592-0.02478 0.066445-0.11856c0.05964-0.10634 0.058525-0.1307-0.010635-0.23625l-0.07708-0.11768zm4.0052 0.585c-0.98435 0-1.136 0.0095-1.208 0.07453-0.1051 0.09511-0.10717 0.31151-0.00352 0.37186 0.04765 0.02775 0.52622 0.04645 1.2117 0.04728 0.97126 0.0012 1.1431-0.0087 1.2038-0.06934 0.09171-0.09171 0.090122-0.23827-0.00378-0.34198-0.06833-0.07555-0.1668-0.08235-1.2002-0.08235zm-4.0875 0.17446c-0.010634 4.97e-4 -0.021036 2e-3 -0.031201 0.0044 0.020331-0.0048 0.041545-0.0059 0.063984-3e-3 -0.01122-0.0014-0.022149-0.0019-0.032783-0.0014zm0.032783 0.0014c0.02244 0.0029 0.046146 0.0098 0.071631 0.02074-0.025485-0.01097-0.049191-0.01785-0.071631-0.02074zm0.071631 0.02074c0.025485 0.01097 0.052711 0.02608 0.082178 0.04553-0.029467-0.01945-0.056692-0.03456-0.082178-0.04553zm0.082178 0.04553c0.029467 0.01945 0.061152 0.04321 0.095537 0.07154-0.034385-0.02833-0.06607-0.05209-0.095537-0.07154zm0.095537 0.07154c0.034385 0.02833 0.071469 0.06126 0.11171 0.09888-0.04024-0.03762-0.077324-0.07054-0.11171-0.09888zm-0.31333-0.13482c-0.020331 0.0048-0.039817 0.01326-0.058975 0.02531 0.019158-0.01205 0.038644-0.02053 0.058975-0.02531zm-0.058975 0.02531c-0.019158 0.01205-0.037944 0.02766-0.056865 0.04658 0.018921-0.01892 0.037707-0.03453 0.056865-0.04658zm-0.056865 0.04658c-0.017449 0.01745-0.03178 0.03445-0.042539 0.05177 0.010759-0.01732 0.02509-0.03432 0.042539-0.05177zm-0.042539 0.05177c-0.010759 0.01732-0.017924 0.03497-0.021094 0.05379 0.00317-0.01882 0.010335-0.03647 0.021094-0.05379zm-0.021094 0.05379c-0.00317 0.01882-0.00233 0.03878 0.00299 0.06073-0.00532-0.02196-0.00616-0.04191-0.00299-0.06073zm0.00299 0.06073c0.00532 0.02196 0.01509 0.04587 0.029795 0.0726-0.014705-0.02673-0.024477-0.05064-0.029795-0.0726zm0.029795 0.0726c0.014705 0.02673 0.034335 0.05625 0.059326 0.08938-0.024991-0.03313-0.044621-0.06266-0.059326-0.08938zm0.059326 0.08938c0.024991 0.03313 0.055319 0.06992 0.091494 0.11109-0.036175-0.04117-0.066504-0.07796-0.091494-0.11109zm0.091494 0.11109c0.072351 0.08234 0.168 0.18236 0.29048 0.30665-0.12248-0.12429-0.21813-0.2243-0.29048-0.30664zm0.29048 0.30665c0.10077 0.10226 0.18261 0.18387 0.25049 0.24882-0.067882-0.06495-0.14972-0.14656-0.25049-0.24882zm0.25049 0.24882c0.067882 0.06494 0.12182 0.11325 0.16673 0.14871-0.044913-0.03546-0.098846-0.08377-0.16673-0.14871zm5.2046-0.12059c-2.4671 0-2.7878 8e-3 -2.8506 0.07075-0.09171 0.09171-0.090122 0.23827 0.00378 0.34198 0.07061 0.07802 0.2178 0.08227 2.835 0.08227 2.7 0 2.7625-2e-3 2.8505-0.09 0.1095-0.1095 0.11452-0.21328 0.01556-0.32265-0.07062-0.07803-0.21837-0.08235-2.8542-0.08235zm-5.2875 2.205c-1.3216 0-1.3337 0.0021-1.3934 0.24012-0.01364 0.05433-0.018748 0.62157-0.011338 1.2605 0.01264 1.0896 0.018883 1.1657 0.10081 1.2255 0.07034 0.05138 0.32613 0.06381 1.3131 0.06381 1.0543 0 1.2356-0.0099 1.2964-0.07066 0.06087-0.06087 0.070664-0.24365 0.070664-1.3127 0-1.0925-0.00897-1.2519-0.074443-1.3242-0.06868-0.07589-0.1699-0.08235-1.3017-0.08235zm-0.91881 0.495h1.8v1.8h-1.8v-0.9zm4.5676 0.09c-0.90689 0-1.0988 0.01136-1.1826 0.07005-0.10798 0.07563-0.12747 0.19945-0.05335 0.33794 0.04424 0.08266 0.10598 0.08701 1.2284 0.08701 0.85927 0 1.1967-0.0147 1.2359-0.05396 0.08951-0.08951 0.064213-0.29381-0.045967-0.37099-0.08379-0.05869-0.27559-0.07005-1.1825-0.07005zm1.6386 1.125c-3.0268 0-2.9212-0.0089-2.9212 0.2475 0 0.25641-0.10478 0.2475 2.9135 0.2475 2.5162 0 2.7795-0.0069 2.8542-0.07444 0.10234-0.09262 0.10557-0.23024 0.0078-0.3382-0.07062-0.07803-0.21846-0.08235-2.8543-0.08235z" fill="#e2e4e5" stroke-width=".094629" style="font-variation-settings:'wght' 800"/><path d="m4.1169 5.9557v-0.88382h0.38089c0.49656 0 0.60375-0.075736 0.65429-0.46233 0.068661-0.52512 0.39849-0.97609 0.85564-1.1699 0.24716-0.10478 0.81674-0.09947 1.0755 0.01001 0.44034 0.18635 0.77844 0.6592 0.83836 1.1725 0.043594 0.37337 0.15353 0.44973 0.64757 0.44973h0.38089v0.88382l-2.4166 6.4e-6z" fill="#502d16" stroke-width="1.5322"/><path d="m5.043 11.997c-0.04342 0-0.44532 0.36446-0.89306 0.80982l-0.81404 0.80974-0.35763-0.35974c-0.37624-0.37846-0.5202-0.44044-0.67157-0.28907-0.13959 0.13959-0.079483 0.24883 0.41045 0.74602 0.40308 0.40904 0.50338 0.48823 0.61831 0.48823 0.11837 0 0.26227-0.12489 1.0489-0.91081 0.80867-0.80795 0.9116-0.92723 0.9116-1.0559 0-0.14971-0.093951-0.23827-0.25295-0.23827z" fill="#11b3a0" stroke-width=".094629" style="font-variation-settings:'wght' 800"/></g><g id="Group" transform="matrix(.29312 0 0 .29312 -.63743 2.2051)" fill-rule="evenodd"><path d="m53.754 18.5 5-10.5 5 10.5v38.5h-10z" fill="#f4d0a1"/><path d="m63.754 24v-5.5l-5-10.5v16z" fill="#edbc7c"/><path d="m63.754 61c0 1.657-1.343 3-3 3h-4c-1.657 0-3-1.343-3-3v-2h10z" fill="#f89392"/><path d="m63.754 59h-10v-3h10z" fill="#facb1b"/><path d="m58.754 59h-5v-2h5z" fill="#fbe158"/><path d="m58.767 7.9844-1.857 3.899c0.512 0.679 1.152 1.101 1.857 1.101s1.345-0.422 1.857-1.101z" fill="#3e3e3f"/><path d="m61.254 20c-1.154 0-2.126-0.782-2.413-1.845-0.027-0.097-0.147-0.097-0.174 0-0.287 1.063-1.259 1.845-2.413 1.845-1.052 0-1.953-0.65-2.322-1.571-0.039-0.097-0.178-0.07-0.178 0.035v38.536h10v-38.536c0-0.105-0.139-0.132-0.178-0.035-0.369 0.921-1.27 1.571-2.322 1.571" fill="#0484ab"/><path d="m53.754 57v-38.507c0-0.111 0.147-0.139 0.19-0.036 0.375 0.906 1.268 1.543 2.31 1.543 1.159 0 2.134-0.789 2.417-1.859 0.014-0.052 0.083-0.046 0.083 9e-3v38.85z" fill="#21b2d1"/><path d="m53.754 59v2c0 1.657 1.343 3 3 3h2v-5z" fill="#f8b4b4"/></g></g></g></svg>

